<?xml version="1.0" encoding="UTF-8" standalone="no"?>
<svg
   version="1.0"
   width="1000"
   height="301.354"
   viewBox="0 0 1000 301.35401"
   id="svg1936"
   inkscape:version="0.91 r13725"
   sodipodi:docname="Amazon_logo.svg"
   xmlns:inkscape="http://www.inkscape.org/namespaces/inkscape"
   xmlns:sodipodi="http://sodipodi.sourceforge.net/DTD/sodipodi-0.dtd"
   xmlns="http://www.w3.org/2000/svg"
   xmlns:svg="http://www.w3.org/2000/svg"
   xmlns:rdf="http://www.w3.org/1999/02/22-rdf-syntax-ns#"
   xmlns:cc="http://creativecommons.org/ns#"
   xmlns:dc="http://purl.org/dc/elements/1.1/">
  <metadata
     id="metadata21">
    <rdf:RDF>
      <cc:Work
         rdf:about="">
        <dc:format>image/svg+xml</dc:format>
        <dc:type
           rdf:resource="http://purl.org/dc/dcmitype/StillImage" />
        <dc:title />
      </cc:Work>
    </rdf:RDF>
  </metadata>
  <sodipodi:namedview
     pagecolor="#ffffff"
     bordercolor="#666666"
     borderopacity="1"
     objecttolerance="10"
     gridtolerance="10"
     guidetolerance="10"
     inkscape:pageopacity="0"
     inkscape:pageshadow="2"
     inkscape:window-width="1366"
     inkscape:window-height="705"
     id="namedview19"
     showgrid="false"
     inkscape:zoom="0.72245926"
     inkscape:cx="426.12453"
     inkscape:cy="94.816171"
     inkscape:window-x="-8"
     inkscape:window-y="-8"
     inkscape:window-maximized="1"
     inkscape:current-layer="svg1936"
     inkscape:pagecheckerboard="0"
     inkscape:lockguides="false" />
  <defs
     id="defs1938" />
  <path
     d="m 1668.1904,249.50979 c -58.1117,42.83292 -142.3411,65.68583 -214.8609,65.68583 -101.6846,0 -193.2269,-37.60937 -262.4821,-100.16107 -5.4412,-4.91885 -0.5659,-11.62235 5.9635,-7.79179 74.7399,43.48586 167.1528,69.64701 262.6127,69.64701 64.3799,0 135.2021,-13.32001 200.3221,-40.96113 9.8376,-4.17885 18.0647,6.44234 8.4447,13.58115"
     id="path8"
     style="fill:#ff9900;fill-opacity:1;fill-rule:evenodd;stroke:none"
     inkscape:connector-curvature="0" />
  <path
     d="m 1692.3492,221.86866 c -7.4,-9.4894 -49.1012,-4.48353 -67.8188,-2.26353 -5.7023,0.69648 -6.5729,-4.26588 -1.4365,-7.83531 33.213,-23.37526 87.7117,-16.6282 94.067,-8.79293 6.3553,7.87883 -1.6541,62.5082 -32.8647,88.58226 -4.7882,4.00469 -9.3588,1.87178 -7.2258,-3.43882 7.0082,-17.49881 22.7223,-56.71874 15.2788,-66.25167"
     id="path10"
     style="fill:#ff9900;fill-opacity:1;fill-rule:evenodd;stroke:none"
     inkscape:connector-curvature="0" />
  <path
     d="M 1625.8363,46.750022 V 24.0277 c 0,-3.438818 2.6118,-5.745872 5.7459,-5.745872 h 101.7281 c 3.2647,0 5.8765,2.350589 5.8765,5.745872 v 19.457626 c -0.043,3.264696 -2.7859,7.530573 -7.6612,14.277622 l -52.7141,75.262272 c 19.5883,-0.47879 40.2647,2.43764 58.0247,12.4494 4.0047,2.26352 5.0929,5.57175 5.3976,8.83648 v 24.24586 c 0,3.30822 -3.6564,7.1823 -7.487,5.17997 -31.2976,-16.41058 -72.8682,-18.19528 -107.474,0.17413 -3.5259,1.9153 -7.2259,-1.91528 -7.2259,-5.22353 v -23.02702 c 0,-3.69999 0.043,-10.01178 3.7435,-15.62706 l 61.0717,-87.581076 h -53.1493 c -3.2647,0 -5.8765,-2.307035 -5.8765,-5.702352"
     id="path12"
     style="fill:#000000;fill-rule:evenodd;stroke:none"
     inkscape:connector-curvature="0" />
  <path
     d="m 1254.7485,188.52515 h -30.9494 c -2.9599,-0.21762 -5.3105,-2.43762 -5.5282,-5.26706 V 24.419495 c 0,-3.177644 2.6553,-5.702367 5.9635,-5.702367 h 28.86 c 3.0035,0.1305 5.3976,2.437637 5.6153,5.310572 v 20.763532 h 0.5659 c 7.5305,-20.067061 21.6776,-29.425874 40.7434,-29.425874 19.3706,0 31.4718,9.358813 40.1776,29.425874 7.4871,-20.067061 24.5071,-29.425874 42.7459,-29.425874 12.9717,0 27.1623,5.354111 35.8247,17.368216 9.7941,13.363512 7.7917,32.777604 7.7917,49.797606 l -0.043,100.24812 c 0,3.17763 -2.6553,5.74585 -5.9635,5.74585 h -30.9059 c -3.0906,-0.21762 -5.5717,-2.69879 -5.5717,-5.74585 V 98.593505 c 0,-6.703515 0.6093,-23.418792 -0.8706,-29.774097 -2.3071,-10.664664 -9.2282,-13.66822 -18.1953,-13.66822 -7.4871,0 -15.3223,5.00588 -18.5,13.015301 -3.1776,8.009403 -2.8729,21.416417 -2.8729,30.427016 V 182.7793 c 0,3.17763 -2.6553,5.74585 -5.9636,5.74585 h -30.9058 c -3.1341,-0.21762 -5.5717,-2.69879 -5.5717,-5.74585 l -0.043,-84.185795 c 0,-17.716441 2.9164,-43.790545 -19.0659,-43.790545 -22.2435,0 -21.3729,25.421136 -21.3729,43.790545 V 182.7793 c 0,3.17763 -2.6553,5.74585 -5.9636,5.74585"
     id="path14"
     style="fill:#000000;fill-rule:evenodd;stroke:none"
     inkscape:connector-curvature="0" />
  <path
     d="m 1826.7678,15.365358 c 45.9235,0 70.7788,39.437602 70.7788,89.583432 0,48.44817 -27.4671,86.88459 -70.7788,86.88459 -45.0964,0 -69.647,-39.4376 -69.647,-88.58224 0,-49.44936 24.8553,-87.885782 69.647,-87.885782 m 0.2612,32.429395 c -22.8094,0 -24.2459,31.079935 -24.2459,50.450525 0,19.414092 -0.3047,60.854032 23.9847,60.854032 23.9847,0 25.1165,-33.43052 25.1165,-53.80231 0,-13.40701 -0.5659,-29.425817 -4.6141,-42.13641 -3.4824,-11.056426 -10.4035,-15.365837 -20.2412,-15.365837"
     id="path16"
     style="fill:#000000;fill-rule:evenodd;stroke:none"
     inkscape:connector-curvature="0" />
  <path
     d="m 1957.0947,188.52515 h -30.8187 c -3.0906,-0.21762 -5.5718,-2.69879 -5.5718,-5.74585 l -0.043,-158.882187 c 0.2612,-2.916469 2.8294,-5.179985 5.9635,-5.179985 h 28.6859 c 2.6988,0.1305 4.9188,1.958823 5.5282,4.439997 v 24.289367 h 0.5659 c 8.6623,-21.721141 20.807,-32.081134 42.1799,-32.081134 13.8859,0 27.4235,5.005884 36.1294,18.717624 8.0964,12.710574 8.0964,34.083507 8.0964,49.449344 V 183.5193 c -0.3482,2.78585 -2.9164,5.00585 -5.9634,5.00585 H 2010.81 c -2.8294,-0.21762 -5.18,-2.30703 -5.4847,-5.00585 V 97.2441 c 0,-17.368215 2.0024,-42.789384 -19.3706,-42.789384 -7.5305,0 -14.4517,5.049433 -17.8905,12.710576 -4.353,9.707072 -4.9188,19.37059 -4.9188,30.078808 v 85.5352 c -0.044,3.17763 -2.7424,5.74585 -6.0506,5.74585"
     id="path18"
     style="fill:#000000;fill-rule:evenodd;stroke:none"
     inkscape:connector-curvature="0" />
  <path
     d="m 1544.7411,112.65349 c 0,12.05762 0.3047,22.1129 -5.7894,32.82113 -4.9188,8.7059 -12.7541,14.06 -21.4164,14.06 -11.8835,0 -18.8482,-9.05413 -18.8482,-22.41764 0,-26.37878 23.6364,-31.16701 46.054,-31.16701 v 6.70352 m 31.2106,75.43637 c -2.0459,1.82823 -5.0059,1.95881 -7.313,0.74001 -10.2729,-8.53175 -12.1447,-12.49291 -17.7599,-20.6329 -16.9765,17.32467 -29.0342,22.50465 -51.0165,22.50465 -26.0741,0 -46.3152,-16.06234 -46.3152,-48.2305 0,-25.11646 13.5812,-42.2235 32.9953,-50.58113 16.8023,-7.400017 40.2646,-8.705874 58.1987,-10.751751 v -4.004701 c 0,-7.356485 0.5659,-16.062359 -3.787,-22.417613 -3.7436,-5.702369 -10.9695,-8.052955 -17.3683,-8.052955 -11.7964,0 -22.287,6.050579 -24.8552,18.587033 -0.5224,2.785898 -2.5682,5.528247 -5.3977,5.658834 l -29.9917,-3.221195 c -2.5247,-0.565851 -5.3541,-2.611761 -4.6141,-6.485843 6.8776,-36.390542 39.7858,-47.359971 69.2117,-47.359971 15.0611,0 34.7364,4.00471 46.6199,15.409394 15.0612,14.059982 13.6247,32.821137 13.6247,53.236424 v 48.230524 c 0,14.4953 6.0071,20.85055 11.6659,28.68587 1.9588,2.78585 2.3941,6.13761 -0.1307,8.22702 -6.3118,5.26708 -17.5424,15.06118 -23.7235,20.54587 l -0.043,-0.0872"
     id="path28"
     style="fill:#000000;fill-rule:evenodd;stroke:none"
     inkscape:connector-curvature="0" />
  <path
     d="m 1139.004,112.65349 c 0,12.05762 0.3046,22.1129 -5.7894,32.82113 -4.9189,8.7059 -12.7106,14.06 -21.4165,14.06 -11.8835,0 -18.8047,-9.05413 -18.8047,-22.41764 0,-26.37878 23.6364,-31.16701 46.0106,-31.16701 v 6.70352 m 31.2105,75.43637 c -2.0459,1.82823 -5.0059,1.95881 -7.313,0.74001 -10.2729,-8.53175 -12.1011,-12.49291 -17.7599,-20.6329 -16.9765,17.32467 -28.9905,22.50465 -51.0164,22.50465 -26.0306,0 -46.3153,-16.06234 -46.3153,-48.2305 0,-25.11646 13.6247,-42.2235 32.9953,-50.58113 16.8023,-7.400017 40.2646,-8.705874 58.1988,-10.751751 v -4.004701 c 0,-7.356485 0.5658,-16.062359 -3.7436,-22.417613 -3.787,-5.702369 -11.0129,-8.052955 -17.3682,-8.052955 -11.7964,0 -22.3306,6.050579 -24.8988,18.587033 -0.5223,2.785898 -2.5682,5.528247 -5.3541,5.658834 l -30.0352,-3.221195 c -2.5248,-0.565851 -5.3106,-2.611761 -4.6142,-6.485843 6.9212,-36.390542 39.7859,-47.359971 69.2117,-47.359971 15.0612,0 34.7364,4.00471 46.6199,15.409394 15.0612,14.059982 13.6247,32.821137 13.6247,53.236424 v 48.230524 c 0,14.4953 6.0071,20.85055 11.6659,28.68587 2.0024,2.78585 2.4377,6.13761 -0.087,8.22702 -6.3117,5.26708 -17.5423,15.06118 -23.7235,20.54587 l -0.087,-0.0872"
     id="path30"
     style="fill:#000000;fill-rule:evenodd;stroke:none"
     inkscape:connector-curvature="0" />
  <rect
     style="fill:#800000"
     id="rect268"
     width="163.33101"
     height="27.683222"
     x="992.44354"
     y="-170.25182" />
  <rect
     style="fill:#800000"
     id="rect292"
     width="163.33101"
     height="27.683222"
     x="1081.0298"
     y="-77.513023" />
</svg>
