<?xml version="1.0" encoding="UTF-8" standalone="no"?>
<svg
   xmlns:dc="http://purl.org/dc/elements/1.1/"
   xmlns:cc="http://creativecommons.org/ns#"
   xmlns:rdf="http://www.w3.org/1999/02/22-rdf-syntax-ns#"
   xmlns:svg="http://www.w3.org/2000/svg"
   xmlns="http://www.w3.org/2000/svg"
   xmlns:sodipodi="http://sodipodi.sourceforge.net/DTD/sodipodi-0.dtd"
   xmlns:inkscape="http://www.inkscape.org/namespaces/inkscape"
   version="1.1"
   id="svg2"
   xml:space="preserve"
   width="8000"
   height="4266.6665"
   viewBox="0 0 8000 4266.6665"
   sodipodi:docname="Online_Shoping_13.eps"><metadata
     id="metadata8"><rdf:RDF><cc:Work
         rdf:about=""><dc:format>image/svg+xml</dc:format><dc:type
           rdf:resource="http://purl.org/dc/dcmitype/StillImage" /></cc:Work></rdf:RDF></metadata><defs
     id="defs6" /><sodipodi:namedview
     pagecolor="#ffffff"
     bordercolor="#666666"
     borderopacity="1"
     objecttolerance="10"
     gridtolerance="10"
     guidetolerance="10"
     inkscape:pageopacity="0"
     inkscape:pageshadow="2"
     inkscape:window-width="640"
     inkscape:window-height="480"
     id="namedview4" /><g
     id="g10"
     inkscape:groupmode="layer"
     inkscape:label="ink_ext_XXXXXX"
     transform="matrix(1.3333333,0,0,-1.3333333,0,4266.6667)"><g
       id="g12"
       transform="scale(0.1)"><path
         d="M 60000,0 H 0 V 32000 H 60000 V 0"
         style="fill:#6ef3f5;fill-opacity:1;fill-rule:nonzero;stroke:none"
         id="path14" /><path
         d="m 9596.25,18891.8 c 0,-3682 2324.55,-6666.9 5191.95,-6666.9 2867.5,0 5192,2984.9 5192,6666.9 0,3681.9 -2324.5,6666.8 -5192,6666.8 -2867.4,0 -5191.95,-2984.9 -5191.95,-6666.8"
         style="fill:#03dbde;fill-opacity:1;fill-rule:nonzero;stroke:none"
         id="path16" /><path
         d="m 14788.2,20014.7 -333,-16204.6 h 771.5 v 16204.6 h -438.5"
         style="fill:#03c9cc;fill-opacity:1;fill-rule:nonzero;stroke:none"
         id="path18" /><path
         d="m 17978,17510.5 c 55.6,-114.4 19,-94.2 77,-207.4 l -3038.2,-1605.3 v 421.2 l 2961.2,1391.5"
         style="fill:#03c9cc;fill-opacity:1;fill-rule:nonzero;stroke:none"
         id="path20" /><path
         d="m 38894.1,17384.9 c 0,-3314.1 -2255.9,-6000.7 -5038.8,-6000.7 -2782.8,0 -5038.7,2686.6 -5038.7,6000.7 0,3314.1 2255.9,6000.7 5038.7,6000.7 2782.9,0 5038.8,-2686.6 5038.8,-6000.7"
         style="fill:#03dbde;fill-opacity:1;fill-rule:nonzero;stroke:none"
         id="path22" /><path
         d="M 40264.8,10483.4 C 39946,9408.5 38803.5,8791.8 37712.9,9106 c -1090.6,314.2 -1716.3,1440.3 -1397.5,2515.2 318.8,1074.9 1461.3,1691.5 2551.9,1377.3 1090.6,-314.2 1716.3,-1440.2 1397.5,-2515.1"
         style="fill:#03dbde;fill-opacity:1;fill-rule:nonzero;stroke:none"
         id="path24" /><path
         d="m 33807.9,18395.6 347.2,-14585.5 h -694.5 v 14585.5 h 347.3"
         style="fill:#03c9cc;fill-opacity:1;fill-rule:nonzero;stroke:none"
         id="path26" /><path
         d="m 38215.8,11052.3 -4060.7,-2097.6 -694.5,-326.3 v 379.1 l 694.5,326.4 3986.4,1873.1 74.3,-154.7"
         style="fill:#03c9cc;fill-opacity:1;fill-rule:nonzero;stroke:none"
         id="path28" /><path
         d="m 30984.2,16141.6 c -50,-102.9 -20.3,-45 -72.4,-146.9 l 2737.8,-1484.6 v 379.1 l -2665.4,1252.4"
         style="fill:#03c9cc;fill-opacity:1;fill-rule:nonzero;stroke:none"
         id="path30" /><path
         d="m 36520.7,14615.2 c 50,-102.9 -2.2,-1 50,-102.9 l -2715.4,-1528.6 v 379.1 l 2665.4,1252.4"
         style="fill:#03c9cc;fill-opacity:1;fill-rule:nonzero;stroke:none"
         id="path32" /><path
         d="m 38083.9,21270.9 c 3.5,44.6 5.7,89.5 5.7,135 0,952.2 -759.4,1724.1 -1696.3,1724.1 -936.8,0 -1696.3,-771.9 -1696.3,-1724.1 0,-45.5 2.3,-90.4 5.7,-135 h 3381.2"
         style="fill:#a3feff;fill-opacity:1;fill-rule:nonzero;stroke:none"
         id="path34" /><path
         d="m 43120.2,21270.9 c 3.1,40.2 5.1,80.7 5.1,121.7 0,858.2 -684.5,1553.9 -1528.9,1553.9 -844.3,0 -1528.8,-695.7 -1528.8,-1553.9 0,-41 2,-81.5 5.1,-121.7 h 3047.5"
         style="fill:#a3feff;fill-opacity:1;fill-rule:nonzero;stroke:none"
         id="path36" /><path
         d="m 41343.4,21270.9 c 13.1,105.2 19.9,212.5 19.9,321.3 0,1394.9 -1112.6,2525.7 -2485,2525.7 -1372.4,0 -2485,-1130.8 -2485,-2525.7 0,-108.8 6.8,-216.1 19.9,-321.3 h 4930.2"
         style="fill:#a3feff;fill-opacity:1;fill-rule:nonzero;stroke:none"
         id="path38" /><path
         d="m 42924.9,3836 c 3,40 5,80.2 5,120.9 0,851.7 -679.3,1542.1 -1517.3,1542.1 -837.9,0 -1517.3,-690.4 -1517.3,-1542.1 0,-40.7 2.1,-80.9 5.1,-120.9 h 3024.5"
         style="fill:#03dbde;fill-opacity:1;fill-rule:nonzero;stroke:none"
         id="path40" /><path
         d="m 47429.6,3836 c 2.8,36 4.6,72.3 4.6,108.9 0,767.7 -612.3,1389.9 -1367.5,1389.9 -755.3,0 -1367.6,-622.2 -1367.6,-1389.9 0,-36.6 1.9,-72.9 4.6,-108.9 h 2725.9"
         style="fill:#03dbde;fill-opacity:1;fill-rule:nonzero;stroke:none"
         id="path42" /><path
         d="m 45840.3,3836 c 11.8,94.2 17.8,190.1 17.8,287.5 0,1247.7 -995.1,2259.2 -2222.7,2259.2 -1227.6,0 -2222.8,-1011.5 -2222.8,-2259.2 0,-97.4 6.1,-193.3 17.9,-287.5 h 4409.8"
         style="fill:#03dbde;fill-opacity:1;fill-rule:nonzero;stroke:none"
         id="path44" /><path
         d="m 8861.34,20377.3 c 1.94,25.3 3.23,50.9 3.23,76.7 0,541.3 -431.72,980.1 -964.28,980.1 -532.56,0 -964.28,-438.8 -964.28,-980.1 0,-25.8 1.29,-51.4 3.22,-76.7 h 1922.11"
         style="fill:#a3feff;fill-opacity:1;fill-rule:nonzero;stroke:none"
         id="path46" /><path
         d="m 11724.2,20377.3 c 1.8,22.8 2.9,45.8 2.9,69.2 0,487.8 -389.1,883.3 -869.1,883.3 -479.9,0 -869.05,-395.5 -869.05,-883.3 0,-23.4 1.16,-46.4 2.91,-69.2 h 1732.34"
         style="fill:#a3feff;fill-opacity:1;fill-rule:nonzero;stroke:none"
         id="path48" /><path
         d="m 10714.2,20377.3 c 7.5,59.8 11.3,120.8 11.3,182.6 0,793 -632.4,1435.8 -1412.6,1435.8 -780.16,0 -1412.61,-642.8 -1412.61,-1435.8 0,-61.8 3.86,-122.8 11.33,-182.6 h 2802.58"
         style="fill:#a3feff;fill-opacity:1;fill-rule:nonzero;stroke:none"
         id="path50" /><path
         d="m 10350.2,14932.7 c 0,0 -435.74,26.4 -830.12,-366.6 -333.68,-332.6 -621.28,-1437.5 -735.5,-1741.9 -114.23,-304.5 -354.97,-1734.7 -354.97,-1734.7 l 390.48,-139.3 673.65,1648.4 670.46,1196.9 c 0,0 956.4,946.5 186,1137.2"
         style="fill:#018764;fill-opacity:1;fill-rule:nonzero;stroke:none"
         id="path52" /><path
         d="m 8399.2,10060.1 c -1.66,0 -3.34,0.4 -4.86,1.3 -4.54,2.7 -6.03,8.4 -3.34,12.9 2.73,4.5 272.38,456.7 205.32,663.8 -12.9,39.9 -38,68.2 -74.6,84.3 -251.69,110.1 -664.36,-574.6 -668.5,-581.5 -2.67,-4.5 -8.53,-6 -13.07,-3.3 -4.54,2.6 -6.05,8.3 -3.38,12.8 17.25,28.9 425.6,706.1 692.7,589.2 41.8,-18.3 70.41,-50.5 85.05,-95.7 69.65,-215.2 -195.77,-660.4 -207.1,-679.2 -1.79,-3 -4.96,-4.6 -8.22,-4.6"
         style="fill:#103558;fill-opacity:1;fill-rule:nonzero;stroke:none"
         id="path54" /><path
         d="m 8184.25,10142.9 c -2.26,0 -4.53,0.8 -6.35,2.4 -3.93,3.5 -4.28,9.4 -0.76,13.3 3.81,4.2 381.46,424.1 339.48,616.3 -7.63,34.9 -28.41,59.3 -63.54,74.7 -253.04,110.8 -810.21,-520.9 -815.8,-527.3 -3.46,-3.9 -9.48,-4.3 -13.47,-0.9 -3.99,3.3 -4.43,9.3 -0.99,13.2 23.24,26.6 572.12,648.6 838.01,532.2 40.53,-17.8 65.58,-47.4 74.45,-88 44.02,-201.5 -328.04,-615.2 -343.9,-632.7 -1.89,-2.1 -4.5,-3.2 -7.13,-3.2"
         style="fill:#103558;fill-opacity:1;fill-rule:nonzero;stroke:none"
         id="path56" /><path
         d="M 7164.55,10532 5787.01,7848.2 6554.23,7569.3 7567.59,10385.5 7164.55,10532"
         style="fill:#f05b5b;fill-opacity:1;fill-rule:nonzero;stroke:none"
         id="path58" /><path
         d="m 7661.89,10351.2 -1111.51,-2780.5 1259.61,-458 874.15,2866.8 -1022.25,371.7"
         style="fill:#e54547;fill-opacity:1;fill-rule:nonzero;stroke:none"
         id="path60" /><path
         d="M 7462.01,10423.9 6370.23,8096 l 184,-526.7 1110.86,2780.7 -203.08,73.9"
         style="fill:#f1696a;fill-opacity:1;fill-rule:nonzero;stroke:none"
         id="path62" /><path
         d="m 6370.23,8096 -587.08,-246.4 767.23,-278.9 z"
         style="fill:#f05b5b;fill-opacity:1;fill-rule:nonzero;stroke:none"
         id="path64" /><path
         d="m 7978.1,10195.5 -993.25,-2909.8 816.47,-171.2 605.68,2991.1 -428.9,89.9"
         style="fill:#0394c2;fill-opacity:1;fill-rule:nonzero;stroke:none"
         id="path66" /><path
         d="m 8507.36,10084.6 -710.14,-2969.2 1340.46,-281 457.54,3022.1 -1087.86,228.1"
         style="fill:#03bbe6;fill-opacity:1;fill-rule:nonzero;stroke:none"
         id="path68" /><path
         d="m 8294.65,10129.2 -757.4,-2509.1 264.07,-505.6 709.45,2969.4 -216.12,45.3"
         style="fill:#038ab5;fill-opacity:1;fill-rule:nonzero;stroke:none"
         id="path70" /><path
         d="m 7537.25,7620.1 -556.5,-333.5 816.47,-171.2 z"
         style="fill:#0394c2;fill-opacity:1;fill-rule:nonzero;stroke:none"
         id="path72" /><path
         d="m 8829.16,10976 -71.41,-239.7 c 0,0 129.16,-78.2 99.76,-156.7 -95.7,-172.9 -431.27,-197.8 -511.97,-155.7 -80.71,42 -181.47,176.9 -156.96,301.5 24.51,124.5 241.03,364.1 241.03,364.1 0,0 333.67,5.9 399.55,-113.5"
         style="fill:#f7a58e;fill-opacity:1;fill-rule:nonzero;stroke:none"
         id="path74" /><path
         d="m 8407,11014.1 103.77,538.3 c 98.02,-123.4 421.65,-171.4 495.89,-145.6 l -198.33,-500.7 -401.33,108"
         style="fill:#f7a58e;fill-opacity:1;fill-rule:nonzero;stroke:none"
         id="path76" /><path
         d="m 10262.9,12284.5 c -99.5,-80.9 -558.35,-548.3 -733.58,-1448.7 -52.66,-270.6 -347.87,-5427 -442.1,-6680.1 h 567.6 c 587.58,2672.5 1109.18,4720.9 1766.28,7700.4 112.9,675.4 -676.5,1044.7 -1158.2,428.4"
         style="fill:#024263;fill-opacity:1;fill-rule:nonzero;stroke:none"
         id="path78" /><path
         d="m 10749,12046.9 c -80.5,-153.5 93.5,-1084.2 93.5,-1682.3 0,-723.3 -15.4,-6481 -15.4,-6481 h 482.2 c 319.8,2094.6 826.9,4690.6 937.3,6425.8 62.6,983.6 -17.9,1138.3 -293.5,2139.9 -203.7,578.2 -919,204.3 -1204.1,-402.4"
         style="fill:#024263;fill-opacity:1;fill-rule:nonzero;stroke:none"
         id="path80" /><path
         d="m 11253.4,14352.9 -954.5,-29 161.9,1360.1 763.6,23.2 29,-1354.3"
         style="fill:#ff9e82;fill-opacity:1;fill-rule:nonzero;stroke:none"
         id="path82" /><path
         d="m 13463.2,16207.2 c -111.2,146.8 -378.8,115.3 -399.1,112.8 v -494.1 c 12.2,-84.2 234.1,-89.8 333.6,0 0,0 160.7,237.6 65.5,381.3"
         style="fill:#ffbaa6;fill-opacity:1;fill-rule:nonzero;stroke:none"
         id="path84" /><path
         d="m 13219.7,16268.9 c -31.1,215.2 -86.6,382.2 -126.4,377 -39.9,-5.2 -49.3,-180.7 -22.5,-396.4 20,-150 152.8,-86.5 148.9,19.4"
         style="fill:#ffbaa6;fill-opacity:1;fill-rule:nonzero;stroke:none"
         id="path86" /><path
         d="m 9102.79,4362.6 c 50.95,65.6 393.46,-131 590.23,0 0,0 899.48,-232.1 556.38,-479 -459.03,0 -1182.61,0 -1182.61,0 -73.41,76.4 -90.29,220.7 36,479"
         style="fill:#ffffff;fill-opacity:1;fill-rule:nonzero;stroke:none"
         id="path88" /><path
         d="m 10820.8,4362.6 c 50.9,65.6 393.4,-131 590.2,0 0,0 899.5,-232.1 556.4,-479 -459,0 -1182.6,0 -1182.6,0 -73.4,76.4 -90.3,220.7 36,479"
         style="fill:#ffffff;fill-opacity:1;fill-rule:nonzero;stroke:none"
         id="path90" /><path
         d="m 11776.1,16626.2 c 79.4,-632.7 -55.4,-1158.7 -522.7,-1206.6 -467.3,-47.9 -1118.3,547.3 -1169.6,1033.1 -51.2,485.9 286,918.6 753.3,966.4 467.4,47.9 878.1,-308.2 939,-792.9"
         style="fill:#ff9e82;fill-opacity:1;fill-rule:nonzero;stroke:none"
         id="path92" /><path
         d="m 10831.9,17594.9 c 0,0 935.7,54.6 1089.9,-631.8 170.7,-598.6 -343,-200.2 -487.3,-629.7 -165.2,-492 93.9,-811.2 386.3,-874.1 -212.7,-372 -1648.1,-513.5 -2084,52.4 -336.66,732.4 -105.11,1911.8 1095.1,2083.2"
         style="fill:#0d0d0d;fill-opacity:1;fill-rule:nonzero;stroke:none"
         id="path94" /><path
         d="m 11626.5,16379.4 c 18.2,-93.3 -43.8,-183.4 -138.4,-201.3 -94.6,-17.8 -186,43.2 -204.1,136.5 -18.2,93.2 43.8,183.3 138.4,201.2 94.6,17.9 186,-43.2 204.1,-136.4"
         style="fill:#ff9e82;fill-opacity:1;fill-rule:nonzero;stroke:none"
         id="path96" /><path
         d="m 13335.2,15920.2 -266.6,-20.8 c -13.2,-134.9 -34.2,-350.4 -57.3,-588.4 h 417.1 c -32.3,247.3 -66.6,464.8 -93.2,609.2"
         style="fill:#ffbaa6;fill-opacity:1;fill-rule:nonzero;stroke:none"
         id="path98" /><path
         d="m 13011.3,15311 c -40.5,-415.7 -87.5,-900 -111.2,-1143.9 l -1119.8,744.8 c 0,0 -698.1,428.5 -906.2,-117.1 -190.1,-498.3 540.3,-831.7 540.3,-831.7 0,0 1980.8,-1047.8 2090.4,-322 63.9,359.4 -1.2,1095.4 -76.4,1669.9 h -417.1"
         style="fill:#018764;fill-opacity:1;fill-rule:nonzero;stroke:none"
         id="path100" /><path
         d="m 12152.4,13768.7 c -4.1,-177.5 -182.5,-1484.9 -182.5,-1484.9 0,0 -969.4,-11.8 -1707.2,0.7 -337.12,1390.1 -833.08,2207.4 -5.2,2669.7 1170.9,433.6 2007.1,-145 1894.9,-1185.5"
         style="fill:#018764;fill-opacity:1;fill-rule:nonzero;stroke:none"
         id="path102" /><path
         d="m 11441.2,15031.3 c -857.8,-278.7 -1183.6,-77.2 -1183.6,-77.2 184.7,141.4 873.7,242.6 1183.6,77.2"
         style="fill:#ff9e82;fill-opacity:1;fill-rule:nonzero;stroke:none"
         id="path104" /><path
         d="m 10257.6,12598.6 c -185.3,-412.3 -446.59,-725 -586.6,-1100.5 0,0 899.2,-505.1 2558.8,-145.7 0,0 -121.4,692.5 -289.1,1246.2 -167.7,553.7 -1395.6,715.7 -1683.1,0"
         style="fill:#018764;fill-opacity:1;fill-rule:nonzero;stroke:none"
         id="path106" /><path
         d="m 9322.03,9881.4 c -3.71,0 -7.23,2.2 -8.78,5.8 -2.68,6.1 -271.67,619.4 -561.09,847.4 -4.11,3.2 -4.79,9.1 -1.5,13.2 3.29,4.1 9.3,4.7 13.42,1.5 293.17,-230.9 564.02,-848.5 566.72,-854.7 2.08,-4.8 -0.17,-10.3 -5.01,-12.4 -1.23,-0.5 -2.51,-0.8 -3.76,-0.8"
         style="fill:#103558;fill-opacity:1;fill-rule:nonzero;stroke:none"
         id="path108" /><path
         d="m 8706.82,10007.6 c -1.63,0 -3.28,0.4 -4.8,1.3 -4.46,2.6 -447,260.7 -522.93,635.6 -1.03,5.1 2.32,10 7.49,11 5.17,1.1 10.2,-2.2 11.23,-7.3 74.27,-366.8 509.44,-620.5 513.83,-623 4.55,-2.6 6.09,-8.4 3.43,-12.9 -1.76,-3 -4.96,-4.7 -8.25,-4.7"
         style="fill:#103558;fill-opacity:1;fill-rule:nonzero;stroke:none"
         id="path110" /><path
         d="m 37774.8,16145.6 c -55.4,-514.8 207.8,-1063.7 539,-1059.7 454.3,5.5 1041.6,373.9 1097,888.8 55.4,514.8 -265.9,970.4 -717.7,1017.6 -451.8,47.2 -862.9,-331.8 -918.3,-846.7"
         style="fill:#ff9070;fill-opacity:1;fill-rule:nonzero;stroke:none"
         id="path112" /><path
         d="m 40590,4294.3 c 0,0 -477.1,52.7 -849.1,0 -308.5,-200.7 -441.6,-189 -441.6,-189 -131.8,-34 -190.6,-212.5 -76.2,-212.5 h 1405.4 l -38.5,401.5"
         style="fill:#ffffff;fill-opacity:1;fill-rule:nonzero;stroke:none"
         id="path114" /><path
         d="m 39409.7,4294.3 c 0,0 -477.1,52.7 -849.1,0 -308.5,-200.7 -441.5,-189 -441.5,-189 -131.9,-34 -190.7,-212.5 -76.3,-212.5 h 1405.4 l -38.5,401.5"
         style="fill:#ffffff;fill-opacity:1;fill-rule:nonzero;stroke:none"
         id="path116" /><path
         d="m 38751.2,14476.6 883.3,293.9 -639.9,1313.4 -621.1,-294 377.7,-1313.3"
         style="fill:#ff9070;fill-opacity:1;fill-rule:nonzero;stroke:none"
         id="path118" /><path
         d="m 37874.4,13555.3 c 0,0 -685.3,-494.8 -350.8,-1019.9 249.2,-391.3 1047.1,32.4 1047.1,487.7 0,410.4 -320.6,652.3 -696.3,532.2"
         style="fill:#f0c46e;fill-opacity:1;fill-rule:nonzero;stroke:none"
         id="path120" /><path
         d="m 39991.2,11518.1 c 0,0 164.7,-281.5 274.9,-842.3 39.2,-199.2 -6.6,-1100.5 6.4,-2618.4 320.4,-1962.9 356,-3928.7 356,-3928.7 l -887.6,165.6 -1358.7,7142.1 1609,81.7"
         style="fill:#0d0d0d;fill-opacity:1;fill-rule:nonzero;stroke:none"
         id="path122" /><path
         d="m 37981.9,11336.2 c 35.3,-1347.6 97.4,-2557.3 223.3,-3439.5 l 355.4,-3602.4 868.7,-159 c -0.9,1117.8 -32.9,2514 -188.9,3809 l 394.1,3381.3 -1652.6,10.6"
         style="fill:#0d0d0d;fill-opacity:1;fill-rule:nonzero;stroke:none"
         id="path124" /><path
         d="m 40253.8,11405.3 c -58.5,-348.3 -90.3,-371.9 -90.3,-371.9 l -2181.6,-47.4 c 0,0 43.7,317.5 -56.5,532.1 -14.9,32 -13.2,138.8 1.9,296.1 21.3,225.6 69.9,554.6 135.1,914.8 140.2,774.3 357.5,1692.4 548.7,2037.3 l 981.5,232.2 c 0,0 437.7,-437.6 534.1,-824.9 96.6,-387.3 185.6,-2420.2 127.1,-2768.3"
         style="fill:#ffd175;fill-opacity:1;fill-rule:nonzero;stroke:none"
         id="path126" /><path
         d="m 38672.2,12983.7 -744.9,-1169.5 c 21.3,225.6 69.9,554.6 135.1,914.8 l 609.8,254.7"
         style="fill:#f0bc56;fill-opacity:1;fill-rule:nonzero;stroke:none"
         id="path128" /><path
         d="m 38940.7,13275.1 c 0,0 264,-560.5 -10.2,-710.7 -274.1,-150.1 -548.3,330.3 -548.3,330.3 l 558.5,380.4"
         style="fill:#ff9070;fill-opacity:1;fill-rule:nonzero;stroke:none"
         id="path130" /><path
         d="m 37853.3,14768.8 190,-1209.5 591.4,686.1 c 0,0 531.5,531.2 958.2,51.7 426.7,-479.6 -239.6,-959.2 -239.6,-959.2 0,0 -973.1,-780.6 -1594.5,-699.5 -621.3,81.2 -233.5,2107.4 -233.5,2107.4 l 328,23"
         style="fill:#ffd175;fill-opacity:1;fill-rule:nonzero;stroke:none"
         id="path132" /><path
         d="m 37853.3,14768.8 95.8,460.7 -244.3,365.6 c 0,0 -91.1,66.1 -124.6,-136.9 -66.9,-94.4 -148.5,-164.4 -138.9,-271.1 9.5,-106.7 84,-441.3 84,-441.3 l 328,23"
         style="fill:#ff9070;fill-opacity:1;fill-rule:nonzero;stroke:none"
         id="path134" /><path
         d="m 39592.5,14998.5 -69.5,177.1 -1039.7,-406.8 -81.8,-445 1191,674.7"
         style="fill:#ffffff;fill-opacity:1;fill-rule:nonzero;stroke:none"
         id="path136" /><path
         d="m 39300.3,15447.6 c 0,0 339.2,481.1 233,1056.4 -106.1,575.3 -971,695.6 -971,695.6 0,0 -902,52.3 -1103.7,-852.5 95.5,-120.3 488.2,78.4 488.2,78.4 l 645.4,-580.5 c 0,0 -7.6,455 220,340 227.7,-115.1 159.7,-481.2 159.7,-481.2 0,0 212.2,-219.6 328.4,-256.2"
         style="fill:#733602;fill-opacity:1;fill-rule:nonzero;stroke:none"
         id="path138" /><path
         d="m 29230.7,3750.7 -10230.4,60.8 c -597.2,3.8 -1080.3,539.7 -1079.2,1196.4 l 35.9,21772.6 c 1,633.2 476.5,1147.6 1062.1,1149.4 l 10044.6,30.1 c 590.3,1.9 1073,-511.7 1078,-1147.8 l 170.1,-21873.3 c 5.1,-659.8 -479,-1192 -1081.1,-1188.2"
         style="fill:#027f99;fill-opacity:1;fill-rule:nonzero;stroke:none"
         id="path140" /><path
         d="m 29362.9,3909.1 c -39.8,-5.3 -80.5,-7.8 -121,-7.5 L 19014.4,3973 c -513.2,3.8 -932.6,473.6 -931.7,1046.8 l 33,21748.7 c 0.9,552.8 413.7,1003.9 917,1006.1 l 10043.9,40.2 c 14.7,0.1 29.5,-0.2 44.1,-0.9 236.2,-10.8 456.9,-116.8 621.8,-298.2 168.6,-185.5 262.4,-431.3 264.4,-692.5 l 167.8,-21895.4 c 4,-518.9 -343.8,-956.9 -811.8,-1018.7"
         style="fill:#0d0d0d;fill-opacity:1;fill-rule:nonzero;stroke:none"
         id="path142" /><path
         d="m 29677.8,26713.2 161.4,-21192.6 -11438.2,63.6 27.5,21129 h 11249.3"
         style="fill:#ceffff;fill-opacity:1;fill-rule:nonzero;stroke:none"
         id="path144" /><path
         d="m 20968.7,26745.9 -1279,-4486.2 H 21531 l 752.9,4486.2 h -1315.2"
         style="fill:#f13005;fill-opacity:1;fill-rule:nonzero;stroke:none"
         id="path146" /><path
         d="m 18517.4,26745.9 -2259.5,-4486.2 h 1590.6 l 1805,4486.2 h -1136.1"
         style="fill:#f13005;fill-opacity:1;fill-rule:nonzero;stroke:none"
         id="path148" /><path
         d="m 28678.9,26745.9 1805,-4486.2 h 1590.6 L 29815,26745.9 h -1136.1"
         style="fill:#f13005;fill-opacity:1;fill-rule:nonzero;stroke:none"
         id="path150" /><path
         d="M 22283.9,26745.9 21531,22259.7 h 1841.2 l 226.9,4486.2 h -1315.2"
         style="fill:#ff8469;fill-opacity:1;fill-rule:nonzero;stroke:none"
         id="path152" /><path
         d="m 19653.5,26745.9 -1805,-4486.2 h 1841.2 l 1279,4486.2 h -1315.2"
         style="fill:#ff8469;fill-opacity:1;fill-rule:nonzero;stroke:none"
         id="path154" /><path
         d="m 24914.3,26745.9 299.2,-4486.2 h 1841.2 l -825.3,4486.2 h -1315.1"
         style="fill:#ff8469;fill-opacity:1;fill-rule:nonzero;stroke:none"
         id="path156" /><path
         d="M 28678.9,26745.9 H 27544.6 L 28896,22259.7 h 1587.9 l -1805,4486.2"
         style="fill:#ff8469;fill-opacity:1;fill-rule:nonzero;stroke:none"
         id="path158" /><path
         d="m 26229.4,26745.9 825.3,-4486.2 H 28896 l -1351.4,4486.2 h -1315.2"
         style="fill:#f13005;fill-opacity:1;fill-rule:nonzero;stroke:none"
         id="path160" /><path
         d="m 23599.1,26745.9 -226.9,-4486.2 h 1841.3 l -299.2,4486.2 h -1315.2"
         style="fill:#f13005;fill-opacity:1;fill-rule:nonzero;stroke:none"
         id="path162" /><path
         d="m 17059,20413.5 h -11.5 c -436.1,0 -789.6,353.5 -789.6,789.6 v 1056.6 h 1590.6 v -1056.6 c 0,-436.1 -353.5,-789.6 -789.5,-789.6"
         style="fill:#e32a00;fill-opacity:1;fill-rule:nonzero;stroke:none"
         id="path164" /><path
         d="M 18840.3,20413.5 H 18698 c -469.2,0 -849.5,380.3 -849.5,849.5 v 996.7 h 1841.2 V 21263 c 0,-469.2 -380.3,-849.5 -849.4,-849.5"
         style="fill:#ff7051;fill-opacity:1;fill-rule:nonzero;stroke:none"
         id="path166" /><path
         d="m 20681.5,20413.5 h -142.3 c -469.1,0 -849.5,380.3 -849.5,849.5 v 996.7 H 21531 V 21263 c 0,-469.2 -380.4,-849.5 -849.5,-849.5"
         style="fill:#e32a00;fill-opacity:1;fill-rule:nonzero;stroke:none"
         id="path168" /><path
         d="m 22522.7,20413.5 h -142.2 c -469.2,0 -849.5,380.3 -849.5,849.5 v 996.7 h 1841.2 V 21263 c 0,-469.2 -380.3,-849.5 -849.5,-849.5"
         style="fill:#ff7051;fill-opacity:1;fill-rule:nonzero;stroke:none"
         id="path170" /><path
         d="m 24364,20413.5 h -142.3 c -469.2,0 -849.5,380.3 -849.5,849.5 v 996.7 h 1841.3 V 21263 c 0,-469.2 -380.4,-849.5 -849.5,-849.5"
         style="fill:#e32a00;fill-opacity:1;fill-rule:nonzero;stroke:none"
         id="path172" /><path
         d="m 26205.2,20413.5 h -142.3 c -469.1,0 -849.4,380.3 -849.4,849.5 v 996.7 h 1841.2 V 21263 c 0,-469.2 -380.3,-849.5 -849.5,-849.5"
         style="fill:#ff7051;fill-opacity:1;fill-rule:nonzero;stroke:none"
         id="path174" /><path
         d="m 28046.4,20413.5 h -142.2 c -469.2,0 -849.5,380.3 -849.5,849.5 v 996.7 h 1841.2 V 21263 c 0,-469.2 -380.3,-849.5 -849.5,-849.5"
         style="fill:#e32a00;fill-opacity:1;fill-rule:nonzero;stroke:none"
         id="path176" /><path
         d="m 29697,20413.5 h -11.5 c -436.1,0 -789.6,353.5 -789.6,789.6 v 1056.6 h 1590.6 v -1056.6 c 0,-436.1 -353.5,-789.6 -789.5,-789.6"
         style="fill:#ff7051;fill-opacity:1;fill-rule:nonzero;stroke:none"
         id="path178" /><path
         d="m 31284.9,20413.5 h -11.5 c -436,0 -789.5,353.5 -789.5,789.6 v 1056.6 h 1590.6 v -1056.6 c 0,-436.1 -353.5,-789.6 -789.6,-789.6"
         style="fill:#e32a00;fill-opacity:1;fill-rule:nonzero;stroke:none"
         id="path180" /><path
         d="m 18931.6,10369.1 v 4462.6 c 0,2825.4 2332.2,5124 5198.9,5124 2866.7,0 5198.9,-2298.6 5198.9,-5124 V 10369.1 H 18931.6"
         style="fill:#0091b4;fill-opacity:1;fill-rule:nonzero;stroke:none"
         id="path182" /><path
         d="m 29005.8,10688 h -9750.6 v 4143.7 c 0,2653.7 2182.7,4805.1 4875.3,4805.1 v 0 c 2692.6,0 4875.3,-2151.4 4875.3,-4805.1 V 10688"
         style="fill:#005875;fill-opacity:1;fill-rule:nonzero;stroke:none"
         id="path184" /><path
         d="M 29588.4,10213.5 H 18672.6 v 474.5 h 10915.8 v -474.5"
         style="fill:#0091b4;fill-opacity:1;fill-rule:nonzero;stroke:none"
         id="path186" /><path
         d="m 21141.9,12321.3 h -465.2 v 968.3 h 465.2 v -968.3"
         style="fill:#016566;fill-opacity:1;fill-rule:nonzero;stroke:none"
         id="path188" /><path
         d="M 27975.3,16547.5 H 20282 v 141.7 h 7693.3 v -141.7"
         style="fill:#006f94;fill-opacity:1;fill-rule:nonzero;stroke:none"
         id="path190" /><path
         d="m 27977.2,15098.5 h -7693.4 v 141.7 h 7693.4 v -141.7"
         style="fill:#006f94;fill-opacity:1;fill-rule:nonzero;stroke:none"
         id="path192" /><path
         d="M 27975.3,13635.6 H 20282 v 141.6 h 7693.3 v -141.6"
         style="fill:#006f94;fill-opacity:1;fill-rule:nonzero;stroke:none"
         id="path194" /><path
         d="M 27975.3,12179.6 H 20282 v 141.7 h 7693.3 v -141.7"
         style="fill:#006f94;fill-opacity:1;fill-rule:nonzero;stroke:none"
         id="path196" /><path
         d="m 21759.6,15233.2 h -1046.2 v 603.1 h 1046.2 v -603.1"
         style="fill:#006f94;fill-opacity:1;fill-rule:nonzero;stroke:none"
         id="path198" /><path
         d="m 22170.9,15821.1 h -1046.2 v 603 h 1046.2 v -603"
         style="fill:#006f94;fill-opacity:1;fill-rule:nonzero;stroke:none"
         id="path200" /><path
         d="m 23003.3,15233.2 h -1046.2 v 603.1 h 1046.2 v -603.1"
         style="fill:#006f94;fill-opacity:1;fill-rule:nonzero;stroke:none"
         id="path202" /><path
         d="m 24169.8,15233.2 h -1046.2 v 603.1 h 1046.2 v -603.1"
         style="fill:#006f94;fill-opacity:1;fill-rule:nonzero;stroke:none"
         id="path204" /><path
         d="m 24313.5,13777.2 h -1046.2 v 603.1 h 1046.2 v -603.1"
         style="fill:#006f94;fill-opacity:1;fill-rule:nonzero;stroke:none"
         id="path206" /><path
         d="m 25359.7,13777.2 h -1046.2 v 603.1 h 1046.2 v -603.1"
         style="fill:#006f94;fill-opacity:1;fill-rule:nonzero;stroke:none"
         id="path208" /><path
         d="m 25912.5,12337.1 h -1046.2 v 603 h 1046.2 v -603"
         style="fill:#006f94;fill-opacity:1;fill-rule:nonzero;stroke:none"
         id="path210" /><path
         d="m 26958.7,12337.1 h -1046.2 v 603 h 1046.2 v -603"
         style="fill:#006f94;fill-opacity:1;fill-rule:nonzero;stroke:none"
         id="path212" /><path
         d="m 23465.6,15821.1 h -1046.2 v 603 h 1046.2 v -603"
         style="fill:#006f94;fill-opacity:1;fill-rule:nonzero;stroke:none"
         id="path214" /><path
         d="m 25549,15233.2 h -465.2 v 968.3 h 465.2 v -968.3"
         style="fill:#006f94;fill-opacity:1;fill-rule:nonzero;stroke:none"
         id="path216" /><path
         d="m 26115.9,15233.2 h -465.2 v 968.3 h 465.2 v -968.3"
         style="fill:#006f94;fill-opacity:1;fill-rule:nonzero;stroke:none"
         id="path218" /><path
         d="m 26682.8,15233.2 h -465.2 v 968.3 h 465.2 v -968.3"
         style="fill:#006f94;fill-opacity:1;fill-rule:nonzero;stroke:none"
         id="path220" /><path
         d="m 27249.7,15233.2 h -465.2 v 968.3 h 465.2 v -968.3"
         style="fill:#006f94;fill-opacity:1;fill-rule:nonzero;stroke:none"
         id="path222" /><path
         d="m 23165.5,16689.2 h -465.1 v 968.3 h 465.1 v -968.3"
         style="fill:#006f94;fill-opacity:1;fill-rule:nonzero;stroke:none"
         id="path224" /><path
         d="m 23732.5,16689.2 h -465.2 v 968.3 h 465.2 v -968.3"
         style="fill:#006f94;fill-opacity:1;fill-rule:nonzero;stroke:none"
         id="path226" /><path
         d="m 24299.4,16689.2 h -465.2 v 968.3 h 465.2 v -968.3"
         style="fill:#006f94;fill-opacity:1;fill-rule:nonzero;stroke:none"
         id="path228" /><path
         d="m 24866.3,16689.2 h -465.2 v 968.3 h 465.2 v -968.3"
         style="fill:#006f94;fill-opacity:1;fill-rule:nonzero;stroke:none"
         id="path230" /><path
         d="m 21708.8,12321.3 h -465.2 v 968.3 h 465.2 v -968.3"
         style="fill:#006f94;fill-opacity:1;fill-rule:nonzero;stroke:none"
         id="path232" /><path
         d="m 22275.7,12321.3 h -465.2 v 968.3 h 465.2 v -968.3"
         style="fill:#006f94;fill-opacity:1;fill-rule:nonzero;stroke:none"
         id="path234" /><path
         d="m 22842.6,12321.3 h -465.2 v 968.3 h 465.2 v -968.3"
         style="fill:#006f94;fill-opacity:1;fill-rule:nonzero;stroke:none"
         id="path236" /><path
         d="m 21463.8,14982.3 -1600.8,-878 -2071.6,-182.7 -65.1,-288.7 c 0,0 1944.7,-387.5 2346.4,-312.9 525.7,87 2229.5,798.5 2229.5,798.5 246.9,658.9 -524.4,1048.8 -838.4,863.8"
         style="fill:#ff9e82;fill-opacity:1;fill-rule:nonzero;stroke:none"
         id="path238" /><path
         d="m 21747.3,15201 c 0,0 -575.4,-119.5 -1016.9,-576.3 69.1,-616 610.1,-1047.4 610.1,-1047.4 0,0 970.2,97.2 1161.9,792.1 191.8,695 -755.1,831.6 -755.1,831.6"
         style="fill:#f14924;fill-opacity:1;fill-rule:nonzero;stroke:none"
         id="path240" /><path
         d="m 23388.1,12156.7 -74.4,-1058.9 -7.5,-107.5 -22.3,-315.1 h -1362.4 l -40.1,600.5 -16.8,252.6 c -0.4,0.4 -0.4,0.4 -0.4,0.4 l -39.4,591.6 1172.1,27.1 391.2,9.3"
         style="fill:#03c9cc;fill-opacity:1;fill-rule:nonzero;stroke:none"
         id="path242" /><path
         d="m 24389.6,10675.2 h -1165.3 l -77,502 -148.6,970.3 -38.8,253.8 1298.6,202.3 87.1,-1280.9 44,-647.5"
         style="fill:#03c9cc;fill-opacity:1;fill-rule:nonzero;stroke:none"
         id="path244" /><path
         d="m 24360.7,11980.3 c -101.8,1728.3 -559.8,3107 -853.6,3326.6 -547.3,409 -2132.6,79.1 -2134.4,-588 -1.2,-466.4 298.9,-2123.3 433.4,-2721.4 704.3,-203.4 1548.2,-219.5 2554.6,-17.2"
         style="fill:#f14924;fill-opacity:1;fill-rule:nonzero;stroke:none"
         id="path246" /><path
         d="m 24362.6,11900.8 c -532.7,-190.7 -2060.8,-232.2 -2590.3,-60.2 l -5.5,230 c 910.3,-147.4 1718.4,-189.5 2591.4,14.8 l 4.4,-184.6"
         style="fill:#0d0d0d;fill-opacity:1;fill-rule:nonzero;stroke:none"
         id="path248" /><path
         d="m 21695.9,13890.2 120.3,-704.4 702,62.1 -101.8,758.3 -720.5,-116"
         style="fill:#03c9cc;fill-opacity:1;fill-rule:nonzero;stroke:none"
         id="path250" /><path
         d="m 24849,13753.6 c -315.8,497.5 -599.6,844.7 -834.2,1086.2 -179.9,-240.4 -358.9,-481.4 -546.5,-715.8 l 676.2,-591.4 77.7,-2028.6 353.7,-42.2 c 0,0 515.7,1456.8 273.1,2291.8"
         style="fill:#ff9e82;fill-opacity:1;fill-rule:nonzero;stroke:none"
         id="path252" /><path
         d="m 23289.5,15416.4 c 0,0 598.1,-59.2 1094.6,-969.3 -120.8,-386.2 -680.3,-676.2 -680.3,-676.2 0,0 -1008.9,672.5 -744,1336.7 128,323.3 329.7,308.8 329.7,308.8"
         style="fill:#f14924;fill-opacity:1;fill-rule:nonzero;stroke:none"
         id="path254" /><path
         d="m 22913.4,15400 c -118.2,-226.4 -826.2,-480.6 -890.6,-348.6 l -108.7,185.6 -238.2,405.7 487.3,362.7 110.7,82.6 639.5,-688"
         style="fill:#ff9e82;fill-opacity:1;fill-rule:nonzero;stroke:none"
         id="path256" /><path
         d="m 22701,15600.4 c 0,0 -23.1,-358.7 -497.2,-577.8 200,-6.6 432.1,-234.3 432.1,-234.3 0,0 367.7,272.2 333.2,703.1 -111.8,171.3 -268.1,109 -268.1,109"
         style="fill:#03c9cc;fill-opacity:1;fill-rule:nonzero;stroke:none"
         id="path258" /><path
         d="m 21874.2,15304.6 c 0,0 -307.7,-81.1 -33.1,-553 61.8,154.8 315.9,265.2 315.9,265.2 0,0 -78.2,33.3 -282.8,287.8"
         style="fill:#03c9cc;fill-opacity:1;fill-rule:nonzero;stroke:none"
         id="path260" /><path
         d="m 21961.9,15199.9 c -92,100.2 -188.4,262.9 -286,442.8 l 618.7,333.9 c 3.9,-201.3 -102.7,-614.4 -332.7,-776.7"
         style="fill:#de7f67;fill-opacity:1;fill-rule:nonzero;stroke:none"
         id="path262" /><path
         d="m 22357.1,15813.5 c -151.9,-220.9 -547.5,-483.9 -923,-491.3 -295.6,-5.9 -532.4,372.2 -644,843.5 -27.1,114.4 -46.9,234.3 -58.4,355.5 -12.4,132.8 -12.9,255.1 -1.3,366.3 49.4,479.4 319,754.9 785.8,803.4 575.1,59.9 992.1,-168.6 1067.6,-873.5 36.7,-342.9 -98.9,-818.4 -226.7,-1003.9"
         style="fill:#ff9e82;fill-opacity:1;fill-rule:nonzero;stroke:none"
         id="path264" /><path
         d="m 22107.1,17232.9 c 0,0 -133.3,-832.4 -1317,-1067.2 -27.1,114.4 -46.9,234.3 -58.4,355.5 -12.4,132.8 -12.9,255.1 -1.3,366.3 525.7,303.8 1182.3,538.5 1376.7,345.4"
         style="fill:#fc8365;fill-opacity:1;fill-rule:nonzero;stroke:none"
         id="path266" /><path
         d="m 20861.9,16623.5 c -4,8.3 -0.4,18.2 8,22.2 8.4,3.9 18.5,0.4 22.5,-7.9 4,-8.3 0.4,-18.2 -8,-22.2 -8.4,-3.9 -18.5,-0.4 -22.5,7.9"
         style="fill:#f7a28a;fill-opacity:1;fill-rule:nonzero;stroke:none"
         id="path268" /><path
         d="m 22157.3,17204 c 0,0 -446.2,-799.9 -1690.3,-690.9 -93.5,416.2 192.7,861.3 473.4,1033.6 428.6,263.1 1016.2,217.5 1208.8,112.5 220.8,-120.4 286.9,-269.8 8.1,-455.2"
         style="fill:#0d0d0d;fill-opacity:1;fill-rule:nonzero;stroke:none"
         id="path270" /><path
         d="m 22392.2,17483.5 c -31.6,7.5 -225.1,-49.6 -351.5,-387.8 10,-421.1 320,-769 612.5,-619.5 192.2,521.8 83.2,925.7 -261,1007.3"
         style="fill:#0d0d0d;fill-opacity:1;fill-rule:nonzero;stroke:none"
         id="path272" /><path
         d="m 22703,16328.8 c 3.5,-146 -113.8,-267.2 -262,-270.6 -148.1,-3.5 -271,112.1 -274.5,258.1 -3.5,146.1 113.7,267.2 261.9,270.7 148.2,3.4 271.1,-112.2 274.6,-258.2"
         style="fill:#ff9e82;fill-opacity:1;fill-rule:nonzero;stroke:none"
         id="path274" /><path
         d="m 20691.5,17319.5 c 0,0 -871,-151 -685.5,-385.2 185.5,-234.2 1445.7,-64.2 1879.8,178.1 0,0 -575.9,253 -1194.3,207.1"
         style="fill:#03c9cc;fill-opacity:1;fill-rule:nonzero;stroke:none"
         id="path276" /><path
         d="m 22205.9,17816.6 c -13.5,-34.5 -86.5,-39 -163,-9.9 -76.5,29 -127.6,80.5 -114.1,115.1 13.5,34.5 86.5,39 163,9.9 76.5,-29 127.6,-80.5 114.1,-115.1"
         style="fill:#03c9cc;fill-opacity:1;fill-rule:nonzero;stroke:none"
         id="path278" /><path
         d="m 22050.5,17866.3 c -16.4,6.2 -32.9,12.4 -49.9,18.5 -479,172.5 -1162,60.4 -1309.1,-565.3 0,0 261.9,-6.5 669.3,-85.4 94.8,574.1 689.7,632.2 689.7,632.2"
         style="fill:#f14924;fill-opacity:1;fill-rule:nonzero;stroke:none"
         id="path280" /><path
         d="m 22050.5,17866.3 c 6.6,-4.4 531.9,-369 300.1,-912.4 132,-49.6 267.7,-105.8 405.8,-169.7 77.9,563.7 -68.2,841.6 -705.9,1082.1"
         style="fill:#f14924;fill-opacity:1;fill-rule:nonzero;stroke:none"
         id="path282" /><path
         d="m 22050.5,17866.3 c 0,0 -594.9,-58.1 -689.7,-632.2 275.3,-53.4 617.1,-140 989.8,-280.2 231.8,543.4 -293.5,908 -300.1,912.4"
         style="fill:#ff8166;fill-opacity:1;fill-rule:nonzero;stroke:none"
         id="path284" /><path
         d="m 24387.7,10675.2 h -2466.2 l -40.1,600.5 c 57.9,-90.5 271.2,-374.7 668.2,-419.1 366.7,-41.4 537.5,115.2 595.8,187.9 17.1,21.4 24.6,35.4 24.6,35.4 0,0 50.8,-43.1 136.2,-89.6 2.3,-1.6 4.9,-2.9 7.5,-4.2 116.5,-62.5 293.5,-129.5 493.8,-108.7 355.6,36.3 549.2,282.2 549.2,282.2 l 31,-484.4"
         style="fill:#02b6b8;fill-opacity:1;fill-rule:nonzero;stroke:none"
         id="path286" /><path
         d="m 17653.2,14829.4 146.5,-1691.7 -952.7,-80.1 -147,1697.5 0.4,0.4 73.8,-58.4 63,69.9 74.2,-58.4 62.6,69.9 74.2,-58.4 63.1,69.9 70.3,-55.6 3.4,-2.8 63.1,69.9 74.1,-58.4 62.7,69.9 39.8,-31.3 34.4,-27 63,69.9 74.2,-58.4 56.9,63.2"
         style="fill:#ff9e4d;fill-opacity:1;fill-rule:nonzero;stroke:none"
         id="path288" /><path
         d="m 17653.2,14829.4 146.5,-1691.7 -476.4,-40.1 -141.7,1636.8 3.4,-2.8 63.1,69.9 74.1,-58.4 62.7,69.9 39.8,-31.3 34.4,-27 63,69.9 74.2,-58.4 56.9,63.2"
         style="fill:#ffc594;fill-opacity:1;fill-rule:nonzero;stroke:none"
         id="path290" /><path
         d="m 17424.7,14781.7 111.1,-1369.2 -212.5,-314.9 -141.7,1636.8 3.4,-2.8 63.1,69.9 74.1,-58.4 62.7,69.9 39.8,-31.3"
         style="fill:#ffb06e;fill-opacity:1;fill-rule:nonzero;stroke:none"
         id="path292" /><path
         d="m 18006.9,13975.2 c 0,0 -493.5,356.5 -640.2,428.5 -75.5,-109.3 -25.9,-191.9 100.9,-227.6 126.7,-35.8 65.1,-466.8 379,-492.3 313.9,-25.5 346.9,236.1 160.3,291.4"
         style="fill:#ff9e82;fill-opacity:1;fill-rule:nonzero;stroke:none"
         id="path294" /><path
         d="m 28380.6,11915.1 290.9,1675.2 h -3037.4 l -291,-1675.2 h 3037.5"
         style="fill:#049799;fill-opacity:1;fill-rule:nonzero;stroke:none"
         id="path296" /><path
         d="m 28525.6,11915.1 291,1675.2 h -3037.4 l -291,-1675.2 h 3037.4"
         style="fill:#0d0d0d;fill-opacity:1;fill-rule:nonzero;stroke:none"
         id="path298" /><path
         d="m 27301.3,10688 h -414.6 l -173.3,1305.9 h 414.6 l 173.3,-1305.9"
         style="fill:#0d0d0d;fill-opacity:1;fill-rule:nonzero;stroke:none"
         id="path300" /><path
         d="m 25560.7,10688 h -459.9 v 351.2 l 459.9,185.2 V 10688"
         style="fill:#049799;fill-opacity:1;fill-rule:nonzero;stroke:none"
         id="path302" /><path
         d="m 28544.5,10688 h -2983.8 v 536.4 h 2983.8 V 10688"
         style="fill:#0d0d0d;fill-opacity:1;fill-rule:nonzero;stroke:none"
         id="path304" /><path
         d="m 21573.6,12233 v -1533.3 h -863.5 v 1538.6 l 0.4,0.3 61.8,-58.1 62.2,58.1 62.2,-58.1 61.8,58.1 62.2,-58.1 62.2,58.1 59,-55.3 2.8,-2.8 62.2,58.1 62.2,-58.1 61.8,58.1 33.4,-31.2 28.8,-26.9 62.2,58.1 62.2,-58.1 56.1,52.5"
         style="fill:#ffc594;fill-opacity:1;fill-rule:nonzero;stroke:none"
         id="path306" /><path
         d="m 21573.6,12233 v -1533.3 h -431.7 v 1483.6 l 2.8,-2.8 62.2,58.1 62.2,-58.1 61.8,58.1 33.4,-31.2 28.8,-26.9 62.2,58.1 62.2,-58.1 56.1,52.5"
         style="fill:#ff9e4d;fill-opacity:1;fill-rule:nonzero;stroke:none"
         id="path308" /><path
         d="m 21364.3,12207.4 -6.7,-1240.5 -215.7,-267.2 v 1483.6 l 2.8,-2.8 62.2,58.1 62.2,-58.1 61.8,58.1 33.4,-31.2"
         style="fill:#ed9348;fill-opacity:1;fill-rule:nonzero;stroke:none"
         id="path310" /><path
         d="m 20477.3,12233 v -1533.3 h -863.4 v 1538.6 l 0.3,0.3 61.8,-58.1 62.2,58.1 62.2,-58.1 61.8,58.1 62.2,-58.1 62.2,58.1 59,-55.3 2.8,-2.8 62.2,58.1 62.2,-58.1 61.8,58.1 33.4,-31.2 28.8,-26.9 62.2,58.1 62.2,-58.1 56.1,52.5"
         style="fill:#ffc594;fill-opacity:1;fill-rule:nonzero;stroke:none"
         id="path312" /><path
         d="m 20477.3,12233 v -1533.3 h -431.7 v 1483.6 l 2.8,-2.8 62.2,58.1 62.2,-58.1 61.8,58.1 33.4,-31.2 28.8,-26.9 62.2,58.1 62.2,-58.1 56.1,52.5"
         style="fill:#ff9e4d;fill-opacity:1;fill-rule:nonzero;stroke:none"
         id="path314" /><path
         d="m 20268,12207.4 -6.7,-1240.5 -215.7,-267.2 v 1483.6 l 2.8,-2.8 62.2,58.1 62.2,-58.1 61.8,58.1 33.4,-31.2"
         style="fill:#ed9348;fill-opacity:1;fill-rule:nonzero;stroke:none"
         id="path316" /><path
         d="m 24468.3,11258.2 4.1,-125.4 -1244.2,-202 -4.2,125.4 1244.3,202"
         style="fill:#0d0d0d;fill-opacity:1;fill-rule:nonzero;stroke:none"
         id="path318" /><path
         d="m 23065.8,11158.1 c 176.7,28.7 322.8,-33 326.3,-137.7 3.4,-104.7 -137,-212.9 -313.7,-241.6 -176.7,-28.7 -322.7,33 -326.2,137.7 -3.5,104.7 136.9,212.9 313.6,241.6"
         style="fill:#0d0d0d;fill-opacity:1;fill-rule:nonzero;stroke:none"
         id="path320" /><path
         d="m 24469.8,11212 -4.2,125.4 -1255,121.1 4.2,-125.3 1255,-121.2"
         style="fill:#027273;fill-opacity:1;fill-rule:nonzero;stroke:none"
         id="path322" /><path
         d="m 23063.7,11221.2 c 178.2,-17.2 319.9,53.8 316.4,158.5 -3.5,104.7 -150.8,203.6 -329,220.8 -178.2,17.2 -319.9,-53.8 -316.4,-158.5 3.5,-104.7 150.8,-203.6 329,-220.8"
         style="fill:#027273;fill-opacity:1;fill-rule:nonzero;stroke:none"
         id="path324" /><path
         d="m 24465.6,11336.7 c 17.3,0.5 32.7,-44.6 34.6,-100.9 1.9,-56.3 -10.6,-102.3 -27.8,-102.9 -17.2,-0.5 -32.6,44.6 -34.5,100.9 -1.9,56.3 10.6,102.3 27.7,102.9"
         style="fill:#027273;fill-opacity:1;fill-rule:nonzero;stroke:none"
         id="path326" /><path
         d="m 24197.3,11577.2 c 0,0 -284.6,-189.4 -100.7,-221.3 70,-46.5 51.6,-208.8 51.6,-208.8 0,0 -87.4,-128.1 169.9,-179 257.3,-50.8 453.7,97.5 455.4,240.1 1.7,142.6 -153.3,474.5 -153.3,474.5 l -422.9,-105.5"
         style="fill:#ff9e82;fill-opacity:1;fill-rule:nonzero;stroke:none"
         id="path328" /><path
         d="m 28071.4,6123.2 h -7803.2 v 3455.5 h 7803.2 V 6123.2"
         style="fill:#03e3e6;fill-opacity:1;fill-rule:nonzero;stroke:none"
         id="path330" /><path
         d="m 24273.3,9010.4 v -270.3 h 536.5 v 270.3 h -536.5"
         style="fill:#ffffff;fill-opacity:1;fill-rule:nonzero;stroke:none"
         id="path332" /><path
         d="m 23692.5,9010.4 h -2998.2 v -270.3 h 2998.2 v 270.3"
         style="fill:#ffffff;fill-opacity:1;fill-rule:nonzero;stroke:none"
         id="path334" /><path
         d="M 23692.5,8340.3 H 20694.3 V 8070 h 2998.2 v 270.3"
         style="fill:#ffffff;fill-opacity:1;fill-rule:nonzero;stroke:none"
         id="path336" /><path
         d="M 24273.3,8340.3 V 8070 h 536.5 v 270.3 h -536.5"
         style="fill:#ffffff;fill-opacity:1;fill-rule:nonzero;stroke:none"
         id="path338" /><path
         d="m 23692.5,7670.2 h -2998.2 v -270.3 h 2998.2 v 270.3"
         style="fill:#ffffff;fill-opacity:1;fill-rule:nonzero;stroke:none"
         id="path340" /><path
         d="m 24273.3,7670.2 v -270.3 h 536.5 v 270.3 h -536.5"
         style="fill:#ffffff;fill-opacity:1;fill-rule:nonzero;stroke:none"
         id="path342" /><path
         d="m 23692.5,7000.2 h -2998.2 v -270.4 h 2998.2 v 270.4"
         style="fill:#ffffff;fill-opacity:1;fill-rule:nonzero;stroke:none"
         id="path344" /><path
         d="m 24273.3,7000.2 v -270.4 h 536.5 v 270.4 h -536.5"
         style="fill:#ffffff;fill-opacity:1;fill-rule:nonzero;stroke:none"
         id="path346" /><path
         d="m 26461.3,7997.3 h -1148.1 v 1131.6 h 1148.1 V 7997.3"
         style="fill:#ffffff;fill-opacity:1;fill-rule:nonzero;stroke:none"
         id="path348" /><path
         d="m 27609.3,6538.7 h -1148 v 1131.5 h 1148 V 6538.7"
         style="fill:#ffffff;fill-opacity:1;fill-rule:nonzero;stroke:none"
         id="path350" /><path
         d="m 31851.5,10567.2 -1249,-6730.9 h 267.3 l 1097.5,5745.9 -115.8,985"
         style="fill:#0d0d0d;fill-opacity:1;fill-rule:nonzero;stroke:none"
         id="path352" /><path
         d="m 31808,3839.6 4451.5,3.6 -612.2,8032.6 -4451.5,-3.6 612.2,-8032.6"
         style="fill:#027273;fill-opacity:1;fill-rule:nonzero;stroke:none"
         id="path354" /><path
         d="m 35909.6,4161.9 -563.6,7394.7 -3800.3,-3.1 563.5,-7394.7 3800.4,3.1"
         style="fill:#ceffff;fill-opacity:1;fill-rule:nonzero;stroke:none"
         id="path356" /><path
         d="m 32800.7,8687.1 h 2492.8 l 20.7,-268.2 h -2492.8 l -20.7,268.2"
         style="fill:#04f2f5;fill-opacity:1;fill-rule:nonzero;stroke:none"
         id="path358" /><path
         d="m 32443.5,8687.1 20.7,-268.2 h -357.1 l -20.7,268.2 h 357.1"
         style="fill:#04f2f5;fill-opacity:1;fill-rule:nonzero;stroke:none"
         id="path360" /><path
         d="m 32858,7944.4 h 2492.9 l 20.7,-268.1 h -2492.9 l -20.7,268.1"
         style="fill:#04f2f5;fill-opacity:1;fill-rule:nonzero;stroke:none"
         id="path362" /><path
         d="m 32500.9,7944.4 20.7,-268.1 h -357.1 l -20.8,268.1 h 357.2"
         style="fill:#04f2f5;fill-opacity:1;fill-rule:nonzero;stroke:none"
         id="path364" /><path
         d="m 32558.2,7201.8 20.8,-268.2 h -357.2 l -20.7,268.2 h 357.1"
         style="fill:#04f2f5;fill-opacity:1;fill-rule:nonzero;stroke:none"
         id="path366" /><path
         d="m 32915.4,7201.8 h 2492.8 l 20.8,-268.2 h -2492.9 l -20.7,268.2"
         style="fill:#04f2f5;fill-opacity:1;fill-rule:nonzero;stroke:none"
         id="path368" /><path
         d="m 32972.7,6459.1 h 2492.9 l 20.7,-268.2 h -2492.8 l -20.8,268.2"
         style="fill:#04f2f5;fill-opacity:1;fill-rule:nonzero;stroke:none"
         id="path370" /><path
         d="m 32615.6,6459.1 20.7,-268.2 h -357.1 l -20.7,268.2 h 357.1"
         style="fill:#04f2f5;fill-opacity:1;fill-rule:nonzero;stroke:none"
         id="path372" /><path
         d="m 34152.3,4672.4 h 1325.1 l -85.2,1103.4 h -1325.1 l 85.2,-1103.4"
         style="fill:#04f2f5;fill-opacity:1;fill-rule:nonzero;stroke:none"
         id="path374" /><path
         d="m 32448.2,4672.4 h 1325.1 l -85.2,1103.4 H 32363 l 85.2,-1103.4"
         style="fill:#04f2f5;fill-opacity:1;fill-rule:nonzero;stroke:none"
         id="path376" /><path
         d="m 32540.7,10095.5 c 42.6,-552.1 531.2,-999.6 1091.3,-999.6 560.1,0 979.6,447.5 936.9,999.6 -42.6,552 -531.2,999.5 -1091.3,999.5 -560.1,0 -979.5,-447.5 -936.9,-999.5"
         style="fill:#04f2f5;fill-opacity:1;fill-rule:nonzero;stroke:none"
         id="path378" /><path
         d="m 49195.7,14391.8 c -250.2,625.5 -953.1,463.2 -953.1,463.2 0,0 163.9,369.6 -117,651.3 -281,281.6 -653.1,163.1 -653.1,163.1 0,0 -156.4,327 -439,310.1 -282.6,-16.8 -285.4,-417 -285.4,-417 0,0 -6.2,1.7 -17.3,4 5.4,-68.3 13.5,-136.4 25.2,-203.7 93.6,-540.1 538.9,-947.8 657.2,-1482.1 77.9,-351.9 -57.1,-715.1 36.9,-1062.3 24.7,-91.1 64.3,-172.7 113.9,-247.4 133.6,-91.7 775.7,-491.1 1202.3,-16.3 478.2,532.3 106.2,964.6 106.2,964.6 0,0 573.4,247 323.2,872.5"
         style="fill:#0d0d0d;fill-opacity:1;fill-rule:nonzero;stroke:none"
         id="path380" /><path
         d="m 45657.4,15424.5 c -93.1,-563 202,-1082.1 659.2,-1159.5 457.1,-77.4 903.2,316.3 996.3,879.2 93.1,563 -202,1082.1 -659.1,1159.5 -457.2,77.4 -903.2,-316.3 -996.4,-879.2"
         style="fill:#ffa88f;fill-opacity:1;fill-rule:nonzero;stroke:none"
         id="path382" /><path
         d="m 46277,15955 c 5.7,20 78,-638.5 1071.6,-720.9 401.7,539.3 -143.1,1611.8 -1016.6,1055.1 -186.8,162.2 -773.4,80.6 -768.2,-471.9 -424.8,-211.8 -265.8,-626.9 19,-502.6 0,0 547.1,125.7 694.2,640.3"
         style="fill:#0d0d0d;fill-opacity:1;fill-rule:nonzero;stroke:none"
         id="path384" /><path
         d="m 47095.6,15162.5 c 31.7,-89 130.5,-135.8 220.8,-104.6 90.2,31.3 137.7,128.7 106,217.7 -31.6,88.9 -130.5,135.7 -220.8,104.5 -90.2,-31.2 -137.7,-128.7 -106,-217.6"
         style="fill:#ffa88f;fill-opacity:1;fill-rule:nonzero;stroke:none"
         id="path386" /><path
         d="m 49281.4,10619.6 -203.2,372.3 413.2,171.6 c 87.8,-282 93.3,-358.2 93.3,-358.2 103.8,-335.4 -191,-382.3 -303.3,-185.7"
         style="fill:#ffa88f;fill-opacity:1;fill-rule:nonzero;stroke:none"
         id="path388" /><path
         d="m 48371.3,12346.4 -1356.5,1028 c -527.4,570.8 263.9,1061.3 652.2,740.8 0,0 1161.5,-960.7 1283.1,-1273.4 81.4,-209.3 363.6,-1107.3 541.3,-1678.3 l -413.2,-171.6 -706.9,1354.5"
         style="fill:#02a659;fill-opacity:1;fill-rule:nonzero;stroke:none"
         id="path390" /><path
         d="m 47840.4,12157.5 c 0,0 794.5,-469.8 937.5,-1127.6 143,-657.8 15.3,-2779.8 15.3,-2779.8 L 50653.8,5089.6 50269.3,4801 c 0,0 -2444.8,2689.5 -2778.5,3378.6 -170.7,814.3 -397.3,3790 -397.3,3790 l 746.9,187.9"
         style="fill:#024263;fill-opacity:1;fill-rule:nonzero;stroke:none"
         id="path392" /><path
         d="M 46658.6,11630 45061.3,4336.2 c 28.8,-111.6 388.8,-196.1 457.7,-104 0,0 2705.4,6137.3 2703.8,7092.8 -1.7,955.5 -1335.8,989.1 -1564.2,305"
         style="fill:#024263;fill-opacity:1;fill-rule:nonzero;stroke:none"
         id="path394" /><path
         d="m 45519,4232.2 c -778.7,86.2 -764.8,555.1 -1226.7,325.7 -41.6,-133.3 357.5,-697 1168.7,-697 105.8,169 58,371.3 58,371.3"
         style="fill:#ffffff;fill-opacity:1;fill-rule:nonzero;stroke:none"
         id="path396" /><path
         d="m 46216.9,13255.4 c 54.7,-229.2 114.6,-420.7 176.2,-595.8 92.8,-264.7 188.6,-492.1 274.2,-756.3 32.2,-99.9 63,-205 91.5,-319.4 0.3,-1.3 0.7,-2.7 1,-4 0,0 643.8,-93.7 1303,264.3 -16,105.2 -28.8,206.6 -39.3,304.7 -120.3,1125.6 67.9,1787 -586.5,2149.6 -363.6,-92.5 -469.1,-144.7 -832.4,-233.9 -145.5,-194.4 -365.6,-536.2 -387.7,-809.2"
         style="fill:#02a659;fill-opacity:1;fill-rule:nonzero;stroke:none"
         id="path398" /><path
         d="m 46604.6,14064.6 c 3.1,21.7 -117.5,885.7 -117.5,885.7 l 597.1,211.2 352.9,-863 c -278.8,-73.4 -555.8,-153.1 -832.5,-233.9"
         style="fill:#ffa88f;fill-opacity:1;fill-rule:nonzero;stroke:none"
         id="path400" /><path
         d="m 46410.2,10494 c 779.4,-570.4 2413.2,-85.5 2413.2,-85.5 168.2,984.1 -799.7,1740.4 -799.7,1740.4 h -0.2 l -1041.6,-188.6 -314.6,-57 -2.3,-0.4 -124.2,-686.9 -130.6,-722"
         style="fill:#02a659;fill-opacity:1;fill-rule:nonzero;stroke:none"
         id="path402" /><path
         d="m 46665,11902.9 -124.2,-686.9 c 287.8,485.5 956.1,1613.6 1252.5,2113.5 -531.5,174.6 -1040.7,-242.6 -1400.2,-669.9 92.8,-264.7 188.6,-492.1 274.2,-756.3 l -2.3,-0.4"
         style="fill:#026636;fill-opacity:1;fill-rule:nonzero;stroke:none"
         id="path404" /><path
         d="m 46984.9,11226.1 26.4,4.2 c -4.2,26 -419.4,2608 218.8,2821.8 152.7,51.1 279.4,43 387.3,-25 332.8,-209.4 412.4,-942.9 489.4,-1652.3 37.1,-341.2 72,-663.5 134.2,-918.2 l 26.1,6.2 c -61.8,253 -96.7,574.5 -133.7,914.8 -77.6,715.6 -158,1455.5 -501.6,1671.8 -113.6,71.5 -251.7,80.8 -410.3,27.7 -278.5,-93.3 -402.6,-602.6 -369,-1513.7 24.8,-674.6 131.3,-1330.8 132.4,-1337.3"
         style="fill:#000000;fill-opacity:1;fill-rule:nonzero;stroke:none"
         id="path406" /><path
         d="m 47052.1,10342.8 c 240.2,-138 1326,49.7 1472.7,254.4 -26.7,340.2 -114.7,630.2 -257.3,875.5 -441.2,12.7 -865.7,-64.4 -1275.6,-220.4 -56.4,-255.7 -30.8,-650.4 60.2,-909.5"
         style="fill:#db6704;fill-opacity:1;fill-rule:nonzero;stroke:none"
         id="path408" /><path
         d="m 48267.5,11472.7 c 0,0 5.1,-516 -586.6,-614.6 -591.8,-98.6 -689,394.2 -689,394.2 0,0 580.5,251.1 1275.6,220.4"
         style="fill:#ed8934;fill-opacity:1;fill-rule:nonzero;stroke:none"
         id="path410" /><path
         d="m 47750.3,10686.9 v 0 c 31.8,5.5 53.2,35.5 47.6,66.8 l -36.6,206 c -5.6,31.3 -36.1,52.4 -67.8,46.9 v 0 c -31.8,-5.5 -53.2,-35.5 -47.6,-66.8 l 36.7,-206 c 5.5,-31.3 36,-52.4 67.7,-46.9"
         style="fill:#ffffff;fill-opacity:1;fill-rule:nonzero;stroke:none"
         id="path412" /><path
         d="m 44131.6,11766.4 405.3,138.3 106,-429.4 c -296.4,-40.4 -373.6,-33.5 -373.6,-33.5 -352.5,-47.6 -352.5,246.7 -137.7,324.6"
         style="fill:#ffa88f;fill-opacity:1;fill-rule:nonzero;stroke:none"
         id="path414" /><path
         d="m 46006.4,12376.6 926.1,1418.1 c 533.2,565.6 1095.1,-170.6 803.5,-578.7 0,0 -993.1,-1413.2 -1325.7,-1481.7 -222.7,-45.7 -1167.1,-177.1 -1767.4,-259 l -106,429.4 1469.5,471.9"
         style="fill:#02a659;fill-opacity:1;fill-rule:nonzero;stroke:none"
         id="path416" /><path
         d="m 50902,4833.7 -262.9,-1013.3 h -831 c -43.5,175.2 94.4,394.2 448.2,441.8 0,0 72.4,271.9 -27.2,539.4 -99.6,267.5 410,307.7 410,307.7 l 262.9,-275.6"
         style="fill:#ffffff;fill-opacity:1;fill-rule:nonzero;stroke:none"
         id="path418" /><path
         d="m 44426.4,11872.5 c 0,0 -551.6,201.7 -583.4,122.1 -31.7,-79.6 -8.9,-167.5 -8.9,-167.5 0,0 -399.3,37 -426.1,-53.7 -26.9,-90.7 13.6,-702.6 1116.6,-308.7 -163.5,248.3 -98.2,407.8 -98.2,407.8"
         style="fill:#ffa88f;fill-opacity:1;fill-rule:nonzero;stroke:none"
         id="path420" /><path
         d="m 49258.9,10660.9 c -1.1,-8.1 71.3,-240.2 209.6,-346.4 138.3,-106.1 351,-151.1 351,-151.1 136.2,0.2 456.3,319.9 216.4,386.1 -197.1,54.4 -292.3,85 -292.3,85 l -148.3,131 c 0,0 -294.3,202.7 -336.4,-104.6"
         style="fill:#ffa88f;fill-opacity:1;fill-rule:nonzero;stroke:none"
         id="path422" /><path
         d="m 25669.6,4672.4 h -3106.3 v 233.8 h 3106.3 v -233.8"
         style="fill:#ceffff;fill-opacity:1;fill-rule:nonzero;stroke:none"
         id="path424" /><path
         d="M 52367,3778.2 H 7351.11 V 3842 H 52367 v -63.8"
         style="fill:#027f99;fill-opacity:1;fill-rule:nonzero;stroke:none"
         id="path426" /><path
         d="m 37684.9,17768.6 c -344.9,2.6 -1024.9,5.9 -2286.7,5.9 -196,0 -355.2,156.6 -355.2,349.8 v 594 c 0,193.2 158.9,349.8 355,349.8 h 2248.2 c 196,0 354.9,-156.6 354.9,-349.8 v -640.2 c 0,-171.9 -141.8,-310.9 -316.2,-309.5"
         style="fill:#ffffff;fill-opacity:1;fill-rule:nonzero;stroke:none"
         id="path428" /><path
         d="m 35698.4,18418.3 c 0,-65.6 -54,-118.8 -120.6,-118.8 -66.5,0 -120.5,53.2 -120.5,118.8 0,65.6 54,118.8 120.5,118.8 66.6,0 120.6,-53.2 120.6,-118.8"
         style="fill:#027273;fill-opacity:1;fill-rule:nonzero;stroke:none"
         id="path430" /><path
         d="m 36327.9,18418.3 c 0,-65.6 -54,-118.8 -120.6,-118.8 -66.5,0 -120.5,53.2 -120.5,118.8 0,65.6 54,118.8 120.5,118.8 66.6,0 120.6,-53.2 120.6,-118.8"
         style="fill:#027273;fill-opacity:1;fill-rule:nonzero;stroke:none"
         id="path432" /><path
         d="m 36957.4,18418.3 c 0,-65.6 -54,-118.8 -120.6,-118.8 -66.5,0 -120.5,53.2 -120.5,118.8 0,65.6 54,118.8 120.5,118.8 66.6,0 120.6,-53.2 120.6,-118.8"
         style="fill:#027273;fill-opacity:1;fill-rule:nonzero;stroke:none"
         id="path434" /><path
         d="m 37586.9,18418.3 c 0,-65.6 -54,-118.8 -120.6,-118.8 -66.5,0 -120.5,53.2 -120.5,118.8 0,65.6 54,118.8 120.5,118.8 66.6,0 120.6,-53.2 120.6,-118.8"
         style="fill:#027273;fill-opacity:1;fill-rule:nonzero;stroke:none"
         id="path436" /><path
         d="m 36784.3,18001.4 v -540 l -697.5,519.8 z"
         style="fill:#ffffff;fill-opacity:1;fill-rule:nonzero;stroke:none"
         id="path438" /><path
         d="m 31356.6,26359.8 c -206.7,-3.9 -377.4,158.1 -381.3,361.8 -4,203.7 160.4,371.9 367.1,375.8 206.6,3.9 377.4,-158.1 381.3,-361.8 3.9,-203.7 -160.4,-372 -367.1,-375.8"
         style="fill:#ffffff;fill-opacity:1;fill-rule:nonzero;stroke:none"
         id="path440" /><path
         d="m 33117.5,26656 239.9,19.8 c -21.6,1244.2 -1045.1,2170.2 -2304.2,2085.4 l 0.8,-237.3 c 1126.8,73.9 2042.4,-754.5 2063.5,-1867.9"
         style="fill:#ffffff;fill-opacity:1;fill-rule:nonzero;stroke:none"
         id="path442" /><path
         d="m 32619.4,26614.9 239.9,19.8 c -20.6,972.5 -820,1696 -1804.4,1633.8 l 0.8,-237.3 c 852.1,51.4 1543.6,-574.6 1563.7,-1416.3"
         style="fill:#ffffff;fill-opacity:1;fill-rule:nonzero;stroke:none"
         id="path444" /><path
         d="m 32137.1,26575.1 239.9,19.8 c -19.6,709.6 -601.9,1237 -1320.5,1196.5 l 0.8,-237.2 c 586.3,29.6 1060.8,-400.3 1079.8,-979.1"
         style="fill:#ffffff;fill-opacity:1;fill-rule:nonzero;stroke:none"
         id="path446" /></g></g></svg>
